<svg width="18" height="30" viewBox="0 0 18 30" fill="none" xmlns="http://www.w3.org/2000/svg">
<path d="M0.666173 16.1706L14.0166 29.5207C14.3253 29.8298 14.7375 30 15.177 30C15.6165 30 16.0287 29.8298 16.3375 29.5207L17.3207 28.5378C17.9604 27.8973 17.9604 26.8564 17.3207 26.2169L6.11003 15.0062L17.3331 3.78313C17.6419 3.47411 17.8124 3.06216 17.8124 2.6229C17.8124 2.18314 17.6419 1.77119 17.3331 1.46193L16.3499 0.479254C16.0409 0.170231 15.629 -9.34586e-06 15.1895 -9.30744e-06C14.75 -9.26902e-06 14.3378 0.170231 14.029 0.479254L0.666173 13.8416C0.356663 14.1516 0.186665 14.5655 0.187642 15.0055C0.186665 15.4472 0.356663 15.8608 0.666173 16.1706Z" fill="#C42132"/>
</svg>
