<?xml version="1.0" encoding="UTF-8"?><!DOCTYPE svg PUBLIC "-//W3C//DTD SVG 1.1//EN" "http://www.w3.org/Graphics/SVG/1.1/DTD/svg11.dtd"><svg xmlns="http://www.w3.org/2000/svg" xmlns:xlink="http://www.w3.org/1999/xlink"><symbol id="icon-arrow"><path d="M.666 16.17l13.35 13.35c.31.31.722.48 1.161.48.44 0 .852-.17 1.16-.48l.984-.982c.64-.64.64-1.682 0-2.321L6.11 15.007 17.333 3.782a1.63 1.63 0 00.48-1.16c0-.44-.171-.852-.48-1.161L16.35.479A1.63 1.63 0 0015.19 0c-.44 0-.852.17-1.161.48L.666 13.841c-.31.31-.48.723-.478 1.163a1.63 1.63 0 00.478 1.166z"/></symbol><symbol id="icon-check-form"><path d="M52 0C23.328 0 0 23.328 0 52s23.328 52 52 52 52-23.328 52-52S80.672 0 52 0zm29.063 38.316L47.83 71.288c-1.955 1.955-5.083 2.085-7.168.13l-17.594-16.03c-2.085-1.954-2.216-5.213-.391-7.298 1.955-2.085 5.213-2.215 7.298-.26L43.92 60.602l29.714-29.715c2.085-2.085 5.343-2.085 7.429 0 2.085 2.085 2.085 5.344 0 7.429z"/></symbol><symbol id="icon-mail"><g><path d="M14.594.906H1.406c-.216 0-.419.053-.602.141l7.165 7.165L9.575 6.67l5.621-5.622a1.39 1.39 0 00-.602-.14zm1.266.804L10.57 7l5.29 5.29a1.39 1.39 0 00.14-.602V2.312a1.39 1.39 0 00-.14-.602zm-15.72 0a1.39 1.39 0 00-.14.603v9.375c0 .216.053.418.14.602L5.43 7 .14 1.71z"/><path d="M9.906 7.663L8.3 9.206a.467.467 0 01-.663 0L6.094 7.663l-5.29 5.29c.183.088.386.14.602.14h13.188c.216 0 .419-.053.602-.14l-5.29-5.29z"/></g></symbol><symbol id="icon-phone"><path d="M14.664 11.864l-2.317-2.322c-.461-.46-1.225-.446-1.703.032l-1.167 1.17a30.47 30.47 0 01-.23-.129c-.737-.409-1.746-.97-2.807-2.034C5.375 7.514 4.815 6.5 4.405 5.762c-.043-.078-.084-.154-.125-.226l.783-.783.385-.387c.478-.48.492-1.245.031-1.707L3.163.337C2.703-.124 1.938-.11 1.46.369l-.653.658.018.018c-.22.28-.402.603-.538.951a3.95 3.95 0 00-.24.965C-.259 5.502.9 7.825 4.045 10.977c4.347 4.357 7.85 4.028 8.002 4.011.329-.039.644-.118.965-.242.344-.135.666-.319.945-.537l.014.012.662-.649c.477-.48.49-1.245.03-1.708z"/></symbol><symbol id="icon-quality"><path d="M45.656 6.425a1.77 1.77 0 00-2.505-.003l-21.25 21.195-7.667-8.328a1.772 1.772 0 00-2.606 2.4l8.916 9.683a1.769 1.769 0 002.553.055L45.653 8.93a1.772 1.772 0 00.003-2.506z" fill="#34BE42"/><path d="M45.229 21.729c-.979 0-1.772.793-1.772 1.771 0 11.005-8.952 19.957-19.957 19.957-11.004 0-19.957-8.952-19.957-19.957 0-11.004 8.953-19.957 19.957-19.957A1.771 1.771 0 1023.5 0C10.542 0 0 10.542 0 23.5S10.542 47 23.5 47 47 36.458 47 23.5c0-.978-.793-1.771-1.771-1.771z" fill="#FFFFFF" opacity="0.8"/></symbol><symbol id="icon-user"><path d="M6.886 7.707a3.73 3.73 0 002.725-1.129 3.729 3.729 0 001.129-2.725A3.73 3.73 0 009.61 1.13 3.73 3.73 0 006.887 0a3.73 3.73 0 00-2.726 1.129 3.729 3.729 0 00-1.129 2.724c0 1.06.38 1.976 1.13 2.725a3.73 3.73 0 002.724 1.13zm6.743 4.596a9.522 9.522 0 00-.13-1.01 7.975 7.975 0 00-.248-1.017 5.023 5.023 0 00-.418-.948 3.576 3.576 0 00-.63-.821 2.778 2.778 0 00-.905-.57 3.147 3.147 0 00-1.156-.208c-.163 0-.321.067-.626.265-.188.123-.408.264-.653.421-.21.134-.493.259-.844.372-.342.11-.69.167-1.032.167a3.35 3.35 0 01-1.033-.167 3.73 3.73 0 01-.844-.372 89.424 89.424 0 01-.653-.42c-.305-.2-.463-.266-.626-.266-.416 0-.805.07-1.155.209-.352.14-.657.33-.906.569a3.58 3.58 0 00-.63.82 5.032 5.032 0 00-.417.949c-.1.313-.184.654-.249 1.016a9.483 9.483 0 00-.13 1.011c-.02.307-.031.624-.031.945 0 .836.265 1.512.789 2.01.517.492 1.2.742 2.033.742h7.704c.832 0 1.516-.25 2.033-.742.524-.498.79-1.174.79-2.01 0-.322-.012-.64-.033-.945z"/></symbol></svg>